<mxfile host="65bd71144e">
    <diagram id="aCayKO2zvY40uEXlpzCP" name="Page-1">
        <mxGraphModel dx="4685" dy="2455" grid="1" gridSize="10" guides="1" tooltips="1" connect="1" arrows="1" fold="1" page="0" pageScale="1" pageWidth="850" pageHeight="1100" math="0" shadow="0">
            <root>
                <mxCell id="0"/>
                <mxCell id="1" parent="0"/>
                <mxCell id="123" value="" style="group;fillColor=#dae8fc;glass=0;shadow=0;sketch=1;fillStyle=auto;jiggle=0;strokeColor=#6c8ebf;gradientColor=none;container=0;" parent="1" vertex="1" connectable="0">
                    <mxGeometry x="640" y="640" width="120" height="960" as="geometry"/>
                </mxCell>
                <mxCell id="153" style="edgeStyle=none;html=1;exitX=0;exitY=0.5;exitDx=0;exitDy=0;entryX=1;entryY=0.5;entryDx=0;entryDy=0;" edge="1" parent="1" source="142">
                    <mxGeometry relative="1" as="geometry">
                        <mxPoint x="280" y="2610" as="targetPoint"/>
                        <Array as="points">
                            <mxPoint x="600" y="2160"/>
                            <mxPoint x="600" y="2610"/>
                        </Array>
                    </mxGeometry>
                </mxCell>
                <mxCell id="142" value="" style="rounded=0;whiteSpace=wrap;html=1;sketch=1;fillStyle=zigzag;strokeColor=#82b366;strokeWidth=1;fillColor=#d5e8d4;gradientColor=#97d077;jiggle=0;" parent="1" vertex="1">
                    <mxGeometry x="640" y="2130" width="120" height="60" as="geometry"/>
                </mxCell>
                <mxCell id="170" style="edgeStyle=none;html=1;entryX=1;entryY=0.5;entryDx=0;entryDy=0;" edge="1" parent="1" source="146">
                    <mxGeometry relative="1" as="geometry">
                        <mxPoint x="280" y="3200" as="targetPoint"/>
                    </mxGeometry>
                </mxCell>
                <mxCell id="146" value="" style="rounded=0;whiteSpace=wrap;html=1;sketch=1;fillStyle=zigzag;strokeColor=#d79b00;strokeWidth=1;fillColor=#ffcd28;gradientColor=#ffa500;jiggle=0;" parent="1" vertex="1">
                    <mxGeometry x="640" y="3170" width="120" height="60" as="geometry"/>
                </mxCell>
                <mxCell id="171" style="edgeStyle=none;html=1;entryX=1;entryY=0.5;entryDx=0;entryDy=0;" edge="1" parent="1">
                    <mxGeometry relative="1" as="geometry">
                        <mxPoint x="160" y="3200" as="sourcePoint"/>
                        <mxPoint x="-200" y="3650" as="targetPoint"/>
                        <Array as="points">
                            <mxPoint x="120" y="3200"/>
                            <mxPoint x="120" y="3650"/>
                        </Array>
                    </mxGeometry>
                </mxCell>
                <mxCell id="71" value="" style="rounded=0;whiteSpace=wrap;html=1;sketch=1;fillStyle=auto;strokeWidth=1;fillColor=#dae8fc;glass=0;shadow=0;jiggle=0;strokeColor=#6c8ebf;gradientColor=none;" parent="1" vertex="1">
                    <mxGeometry x="640" y="640" width="120" height="60" as="geometry"/>
                </mxCell>
                <mxCell id="149" style="edgeStyle=none;html=1;entryX=1;entryY=0.5;entryDx=0;entryDy=0;" edge="1" parent="1" source="73" target="126">
                    <mxGeometry relative="1" as="geometry">
                        <Array as="points">
                            <mxPoint x="480" y="730"/>
                            <mxPoint x="480" y="1710"/>
                        </Array>
                    </mxGeometry>
                </mxCell>
                <mxCell id="73" value="" style="rounded=0;whiteSpace=wrap;html=1;sketch=1;fillStyle=auto;strokeWidth=1;fillColor=#dae8fc;glass=0;shadow=0;jiggle=0;strokeColor=#6c8ebf;gradientColor=none;" parent="1" vertex="1">
                    <mxGeometry x="640" y="700" width="120" height="60" as="geometry"/>
                </mxCell>
                <mxCell id="150" style="edgeStyle=none;html=1;entryX=1;entryY=0.5;entryDx=0;entryDy=0;" edge="1" parent="1" source="74" target="127">
                    <mxGeometry relative="1" as="geometry">
                        <mxPoint x="510" y="790" as="targetPoint"/>
                        <Array as="points">
                            <mxPoint x="520" y="790"/>
                            <mxPoint x="520" y="1770"/>
                        </Array>
                    </mxGeometry>
                </mxCell>
                <mxCell id="74" value="" style="rounded=0;whiteSpace=wrap;html=1;sketch=1;fillStyle=auto;strokeWidth=1;fillColor=#dae8fc;glass=0;shadow=0;jiggle=0;strokeColor=#6c8ebf;gradientColor=none;" parent="1" vertex="1">
                    <mxGeometry x="640" y="760" width="120" height="60" as="geometry"/>
                </mxCell>
                <mxCell id="75" value="" style="rounded=0;whiteSpace=wrap;html=1;sketch=1;fillStyle=auto;strokeWidth=1;fillColor=#dae8fc;glass=0;shadow=0;jiggle=0;strokeColor=#6c8ebf;gradientColor=none;" parent="1" vertex="1">
                    <mxGeometry x="640" y="820" width="120" height="60" as="geometry"/>
                </mxCell>
                <mxCell id="76" value="" style="rounded=0;whiteSpace=wrap;html=1;sketch=1;fillStyle=auto;strokeWidth=1;fillColor=#dae8fc;glass=0;shadow=0;jiggle=0;strokeColor=#6c8ebf;gradientColor=none;" parent="1" vertex="1">
                    <mxGeometry x="640" y="880" width="120" height="60" as="geometry"/>
                </mxCell>
                <mxCell id="77" value="" style="rounded=0;whiteSpace=wrap;html=1;sketch=1;fillStyle=auto;strokeWidth=1;fillColor=#dae8fc;glass=0;shadow=0;jiggle=0;strokeColor=#6c8ebf;gradientColor=none;" parent="1" vertex="1">
                    <mxGeometry x="640" y="940" width="120" height="60" as="geometry"/>
                </mxCell>
                <mxCell id="78" value="" style="rounded=0;whiteSpace=wrap;html=1;sketch=1;fillStyle=auto;strokeWidth=1;fillColor=#dae8fc;glass=0;shadow=0;jiggle=0;strokeColor=#6c8ebf;gradientColor=none;" parent="1" vertex="1">
                    <mxGeometry x="640" y="1000" width="120" height="60" as="geometry"/>
                </mxCell>
                <mxCell id="79" value="" style="rounded=0;whiteSpace=wrap;html=1;sketch=1;fillStyle=auto;strokeWidth=1;fillColor=#dae8fc;glass=0;shadow=0;jiggle=0;strokeColor=#6c8ebf;gradientColor=none;" parent="1" vertex="1">
                    <mxGeometry x="640" y="1060" width="120" height="60" as="geometry"/>
                </mxCell>
                <mxCell id="80" value="" style="rounded=0;whiteSpace=wrap;html=1;sketch=1;fillStyle=auto;strokeWidth=1;fillColor=#dae8fc;glass=0;shadow=0;jiggle=0;strokeColor=#6c8ebf;gradientColor=none;" parent="1" vertex="1">
                    <mxGeometry x="640" y="1120" width="120" height="60" as="geometry"/>
                </mxCell>
                <mxCell id="81" value="" style="rounded=0;whiteSpace=wrap;html=1;sketch=1;fillStyle=auto;strokeWidth=1;fillColor=#dae8fc;glass=0;shadow=0;jiggle=0;strokeColor=#6c8ebf;gradientColor=none;" parent="1" vertex="1">
                    <mxGeometry x="640" y="1180" width="120" height="60" as="geometry"/>
                </mxCell>
                <mxCell id="82" value="" style="rounded=0;whiteSpace=wrap;html=1;sketch=1;fillStyle=auto;strokeWidth=1;fillColor=#dae8fc;glass=0;shadow=0;jiggle=0;strokeColor=#6c8ebf;gradientColor=none;" parent="1" vertex="1">
                    <mxGeometry x="640" y="1240" width="120" height="60" as="geometry"/>
                </mxCell>
                <mxCell id="83" value="" style="rounded=0;whiteSpace=wrap;html=1;sketch=1;fillStyle=auto;strokeWidth=1;fillColor=#dae8fc;glass=0;shadow=0;jiggle=0;strokeColor=#6c8ebf;gradientColor=none;" parent="1" vertex="1">
                    <mxGeometry x="640" y="1300" width="120" height="60" as="geometry"/>
                </mxCell>
                <mxCell id="84" value="" style="rounded=0;whiteSpace=wrap;html=1;sketch=1;fillStyle=auto;strokeWidth=1;fillColor=#dae8fc;glass=0;shadow=0;jiggle=0;strokeColor=#6c8ebf;gradientColor=none;" parent="1" vertex="1">
                    <mxGeometry x="640" y="1360" width="120" height="60" as="geometry"/>
                </mxCell>
                <mxCell id="85" value="" style="rounded=0;whiteSpace=wrap;html=1;sketch=1;fillStyle=auto;strokeWidth=1;fillColor=#dae8fc;glass=0;shadow=0;jiggle=0;strokeColor=#6c8ebf;gradientColor=none;" parent="1" vertex="1">
                    <mxGeometry x="640" y="1420" width="120" height="60" as="geometry"/>
                </mxCell>
                <mxCell id="86" value="" style="rounded=0;whiteSpace=wrap;html=1;sketch=1;fillStyle=auto;strokeWidth=1;fillColor=#dae8fc;glass=0;shadow=0;jiggle=0;strokeColor=#6c8ebf;gradientColor=none;" parent="1" vertex="1">
                    <mxGeometry x="640" y="1480" width="120" height="60" as="geometry"/>
                </mxCell>
                <mxCell id="151" style="edgeStyle=none;html=1;entryX=1;entryY=0.5;entryDx=0;entryDy=0;" edge="1" parent="1" source="87" target="140">
                    <mxGeometry relative="1" as="geometry">
                        <Array as="points">
                            <mxPoint x="570" y="1570"/>
                            <mxPoint x="570" y="2550"/>
                        </Array>
                    </mxGeometry>
                </mxCell>
                <mxCell id="87" value="" style="rounded=0;whiteSpace=wrap;html=1;sketch=1;fillStyle=auto;strokeWidth=1;fillColor=#dae8fc;glass=0;shadow=0;jiggle=0;strokeColor=#6c8ebf;gradientColor=none;" parent="1" vertex="1">
                    <mxGeometry x="640" y="1540" width="120" height="60" as="geometry"/>
                </mxCell>
                <mxCell id="126" value="" style="rounded=0;whiteSpace=wrap;html=1;sketch=1;fillStyle=zigzag;strokeColor=#6c8ebf;strokeWidth=1;fillColor=#dae8fc;gradientColor=#7ea6e0;jiggle=0;" parent="1" vertex="1">
                    <mxGeometry x="160" y="1680" width="120" height="60" as="geometry"/>
                </mxCell>
                <mxCell id="175" style="edgeStyle=none;html=1;entryX=1;entryY=0.5;entryDx=0;entryDy=0;" edge="1" parent="1" source="127">
                    <mxGeometry relative="1" as="geometry">
                        <mxPoint x="-200" y="2750" as="targetPoint"/>
                        <Array as="points">
                            <mxPoint y="1770"/>
                            <mxPoint y="2750"/>
                        </Array>
                    </mxGeometry>
                </mxCell>
                <mxCell id="127" value="" style="rounded=0;whiteSpace=wrap;html=1;sketch=1;fillStyle=zigzag;strokeColor=#6c8ebf;strokeWidth=1;fillColor=#dae8fc;gradientColor=#7ea6e0;jiggle=0;" parent="1" vertex="1">
                    <mxGeometry x="160" y="1740" width="120" height="60" as="geometry"/>
                </mxCell>
                <mxCell id="176" style="edgeStyle=none;html=1;entryX=1;entryY=0.5;entryDx=0;entryDy=0;" edge="1" parent="1" source="128">
                    <mxGeometry relative="1" as="geometry">
                        <mxPoint x="-200" y="2810" as="targetPoint"/>
                        <Array as="points">
                            <mxPoint x="40" y="1830"/>
                            <mxPoint x="40" y="2810"/>
                        </Array>
                    </mxGeometry>
                </mxCell>
                <mxCell id="128" value="" style="rounded=0;whiteSpace=wrap;html=1;sketch=1;fillStyle=zigzag;strokeColor=#6c8ebf;strokeWidth=1;fillColor=#dae8fc;gradientColor=#7ea6e0;jiggle=0;" parent="1" vertex="1">
                    <mxGeometry x="160" y="1800" width="120" height="60" as="geometry"/>
                </mxCell>
                <mxCell id="129" value="" style="rounded=0;whiteSpace=wrap;html=1;sketch=1;fillStyle=zigzag;strokeColor=#6c8ebf;strokeWidth=1;fillColor=#dae8fc;gradientColor=#7ea6e0;jiggle=0;" parent="1" vertex="1">
                    <mxGeometry x="160" y="1860" width="120" height="60" as="geometry"/>
                </mxCell>
                <mxCell id="130" value="" style="rounded=0;whiteSpace=wrap;html=1;sketch=1;fillStyle=zigzag;strokeColor=#6c8ebf;strokeWidth=1;fillColor=#dae8fc;gradientColor=#7ea6e0;jiggle=0;" parent="1" vertex="1">
                    <mxGeometry x="160" y="1920" width="120" height="60" as="geometry"/>
                </mxCell>
                <mxCell id="131" value="" style="rounded=0;whiteSpace=wrap;html=1;sketch=1;fillStyle=zigzag;strokeColor=#6c8ebf;strokeWidth=1;fillColor=#dae8fc;gradientColor=#7ea6e0;jiggle=0;" parent="1" vertex="1">
                    <mxGeometry x="160" y="1980" width="120" height="60" as="geometry"/>
                </mxCell>
                <mxCell id="132" value="" style="rounded=0;whiteSpace=wrap;html=1;sketch=1;fillStyle=zigzag;strokeColor=#6c8ebf;strokeWidth=1;fillColor=#dae8fc;gradientColor=#7ea6e0;jiggle=0;" parent="1" vertex="1">
                    <mxGeometry x="160" y="2040" width="120" height="60" as="geometry"/>
                </mxCell>
                <mxCell id="133" value="" style="rounded=0;whiteSpace=wrap;html=1;sketch=1;fillStyle=zigzag;strokeColor=#6c8ebf;strokeWidth=1;fillColor=#dae8fc;gradientColor=#7ea6e0;jiggle=0;" parent="1" vertex="1">
                    <mxGeometry x="160" y="2100" width="120" height="60" as="geometry"/>
                </mxCell>
                <mxCell id="134" value="" style="rounded=0;whiteSpace=wrap;html=1;sketch=1;fillStyle=zigzag;strokeColor=#6c8ebf;strokeWidth=1;fillColor=#dae8fc;gradientColor=#7ea6e0;jiggle=0;" parent="1" vertex="1">
                    <mxGeometry x="160" y="2160" width="120" height="60" as="geometry"/>
                </mxCell>
                <mxCell id="135" value="" style="rounded=0;whiteSpace=wrap;html=1;sketch=1;fillStyle=zigzag;strokeColor=#6c8ebf;strokeWidth=1;fillColor=#dae8fc;gradientColor=#7ea6e0;jiggle=0;" parent="1" vertex="1">
                    <mxGeometry x="160" y="2220" width="120" height="60" as="geometry"/>
                </mxCell>
                <mxCell id="136" value="" style="rounded=0;whiteSpace=wrap;html=1;sketch=1;fillStyle=zigzag;strokeColor=#6c8ebf;strokeWidth=1;fillColor=#dae8fc;gradientColor=#7ea6e0;jiggle=0;" parent="1" vertex="1">
                    <mxGeometry x="160" y="2280" width="120" height="60" as="geometry"/>
                </mxCell>
                <mxCell id="137" value="" style="rounded=0;whiteSpace=wrap;html=1;sketch=1;fillStyle=zigzag;strokeColor=#6c8ebf;strokeWidth=1;fillColor=#dae8fc;gradientColor=#7ea6e0;jiggle=0;" parent="1" vertex="1">
                    <mxGeometry x="160" y="2340" width="120" height="60" as="geometry"/>
                </mxCell>
                <mxCell id="138" value="" style="rounded=0;whiteSpace=wrap;html=1;sketch=1;fillStyle=zigzag;strokeColor=#6c8ebf;strokeWidth=1;fillColor=#dae8fc;gradientColor=#7ea6e0;jiggle=0;" parent="1" vertex="1">
                    <mxGeometry x="160" y="2400" width="120" height="60" as="geometry"/>
                </mxCell>
                <mxCell id="139" value="" style="rounded=0;whiteSpace=wrap;html=1;sketch=1;fillStyle=zigzag;strokeColor=#6c8ebf;strokeWidth=1;fillColor=#dae8fc;gradientColor=#7ea6e0;jiggle=0;" parent="1" vertex="1">
                    <mxGeometry x="160" y="2460" width="120" height="60" as="geometry"/>
                </mxCell>
                <mxCell id="140" value="" style="rounded=0;whiteSpace=wrap;html=1;sketch=1;fillStyle=zigzag;strokeColor=#6c8ebf;strokeWidth=1;fillColor=#dae8fc;gradientColor=#7ea6e0;jiggle=0;" parent="1" vertex="1">
                    <mxGeometry x="160" y="2520" width="120" height="60" as="geometry"/>
                </mxCell>
                <mxCell id="172" style="edgeStyle=none;html=1;entryX=1;entryY=0.5;entryDx=0;entryDy=0;" edge="1" parent="1">
                    <mxGeometry relative="1" as="geometry">
                        <mxPoint x="160" y="2610" as="sourcePoint"/>
                        <mxPoint x="-200" y="3590" as="targetPoint"/>
                        <Array as="points">
                            <mxPoint x="80" y="2610"/>
                            <mxPoint x="80" y="3590"/>
                        </Array>
                    </mxGeometry>
                </mxCell>
                <mxCell id="177" value="" style="rounded=0;whiteSpace=wrap;html=1;sketch=1;fillStyle=zigzag;strokeColor=#82b366;strokeWidth=1;fillColor=#d5e8d4;gradientColor=#97d077;jiggle=0;" vertex="1" parent="1">
                    <mxGeometry x="160" y="2580" width="120" height="60" as="geometry"/>
                </mxCell>
                <mxCell id="178" value="" style="rounded=0;whiteSpace=wrap;html=1;sketch=1;fillStyle=zigzag;strokeColor=#6c8ebf;strokeWidth=1;fillColor=#dae8fc;gradientColor=#7ea6e0;jiggle=0;" vertex="1" parent="1">
                    <mxGeometry x="-320" y="2720" width="120" height="60" as="geometry"/>
                </mxCell>
                <mxCell id="179" value="" style="rounded=0;whiteSpace=wrap;html=1;sketch=1;fillStyle=zigzag;strokeColor=#6c8ebf;strokeWidth=1;fillColor=#dae8fc;gradientColor=#7ea6e0;jiggle=0;" vertex="1" parent="1">
                    <mxGeometry x="-320" y="2780" width="120" height="60" as="geometry"/>
                </mxCell>
                <mxCell id="180" value="" style="rounded=0;whiteSpace=wrap;html=1;sketch=1;fillStyle=zigzag;strokeColor=#6c8ebf;strokeWidth=1;fillColor=#dae8fc;gradientColor=#7ea6e0;jiggle=0;" vertex="1" parent="1">
                    <mxGeometry x="-320" y="2840" width="120" height="60" as="geometry"/>
                </mxCell>
                <mxCell id="181" value="" style="rounded=0;whiteSpace=wrap;html=1;sketch=1;fillStyle=zigzag;strokeColor=#6c8ebf;strokeWidth=1;fillColor=#dae8fc;gradientColor=#7ea6e0;jiggle=0;" vertex="1" parent="1">
                    <mxGeometry x="-320" y="2900" width="120" height="60" as="geometry"/>
                </mxCell>
                <mxCell id="182" value="" style="rounded=0;whiteSpace=wrap;html=1;sketch=1;fillStyle=zigzag;strokeColor=#6c8ebf;strokeWidth=1;fillColor=#dae8fc;gradientColor=#7ea6e0;jiggle=0;" vertex="1" parent="1">
                    <mxGeometry x="-320" y="2960" width="120" height="60" as="geometry"/>
                </mxCell>
                <mxCell id="183" value="" style="rounded=0;whiteSpace=wrap;html=1;sketch=1;fillStyle=zigzag;strokeColor=#6c8ebf;strokeWidth=1;fillColor=#dae8fc;gradientColor=#7ea6e0;jiggle=0;" vertex="1" parent="1">
                    <mxGeometry x="-320" y="3020" width="120" height="60" as="geometry"/>
                </mxCell>
                <mxCell id="184" value="" style="rounded=0;whiteSpace=wrap;html=1;sketch=1;fillStyle=zigzag;strokeColor=#6c8ebf;strokeWidth=1;fillColor=#dae8fc;gradientColor=#7ea6e0;jiggle=0;" vertex="1" parent="1">
                    <mxGeometry x="-320" y="3080" width="120" height="60" as="geometry"/>
                </mxCell>
                <mxCell id="185" value="" style="rounded=0;whiteSpace=wrap;html=1;sketch=1;fillStyle=zigzag;strokeColor=#6c8ebf;strokeWidth=1;fillColor=#dae8fc;gradientColor=#7ea6e0;jiggle=0;" vertex="1" parent="1">
                    <mxGeometry x="-320" y="3140" width="120" height="60" as="geometry"/>
                </mxCell>
                <mxCell id="186" value="" style="rounded=0;whiteSpace=wrap;html=1;sketch=1;fillStyle=zigzag;strokeColor=#6c8ebf;strokeWidth=1;fillColor=#dae8fc;gradientColor=#7ea6e0;jiggle=0;" vertex="1" parent="1">
                    <mxGeometry x="-320" y="3200" width="120" height="60" as="geometry"/>
                </mxCell>
                <mxCell id="187" value="" style="rounded=0;whiteSpace=wrap;html=1;sketch=1;fillStyle=zigzag;strokeColor=#6c8ebf;strokeWidth=1;fillColor=#dae8fc;gradientColor=#7ea6e0;jiggle=0;" vertex="1" parent="1">
                    <mxGeometry x="-320" y="3260" width="120" height="60" as="geometry"/>
                </mxCell>
                <mxCell id="188" value="" style="rounded=0;whiteSpace=wrap;html=1;sketch=1;fillStyle=zigzag;strokeColor=#6c8ebf;strokeWidth=1;fillColor=#dae8fc;gradientColor=#7ea6e0;jiggle=0;" vertex="1" parent="1">
                    <mxGeometry x="-320" y="3320" width="120" height="60" as="geometry"/>
                </mxCell>
                <mxCell id="189" value="" style="rounded=0;whiteSpace=wrap;html=1;sketch=1;fillStyle=zigzag;strokeColor=#6c8ebf;strokeWidth=1;fillColor=#dae8fc;gradientColor=#7ea6e0;jiggle=0;" vertex="1" parent="1">
                    <mxGeometry x="-320" y="3380" width="120" height="60" as="geometry"/>
                </mxCell>
                <mxCell id="190" value="" style="rounded=0;whiteSpace=wrap;html=1;sketch=1;fillStyle=zigzag;strokeColor=#6c8ebf;strokeWidth=1;fillColor=#dae8fc;gradientColor=#7ea6e0;jiggle=0;" vertex="1" parent="1">
                    <mxGeometry x="-320" y="3440" width="120" height="60" as="geometry"/>
                </mxCell>
                <mxCell id="191" value="" style="rounded=0;whiteSpace=wrap;html=1;sketch=1;fillStyle=zigzag;strokeColor=#6c8ebf;strokeWidth=1;fillColor=#dae8fc;gradientColor=#7ea6e0;jiggle=0;" vertex="1" parent="1">
                    <mxGeometry x="-320" y="3500" width="120" height="60" as="geometry"/>
                </mxCell>
                <mxCell id="192" value="" style="rounded=0;whiteSpace=wrap;html=1;sketch=1;fillStyle=zigzag;strokeColor=#82b366;strokeWidth=1;fillColor=#d5e8d4;gradientColor=#97d077;jiggle=0;" vertex="1" parent="1">
                    <mxGeometry x="-320" y="3560" width="120" height="60" as="geometry"/>
                </mxCell>
                <mxCell id="193" value="" style="rounded=0;whiteSpace=wrap;html=1;sketch=1;fillStyle=zigzag;strokeColor=#d79b00;strokeWidth=1;fillColor=#ffcd28;gradientColor=#ffa500;jiggle=0;" vertex="1" parent="1">
                    <mxGeometry x="160" y="3170" width="120" height="60" as="geometry"/>
                </mxCell>
                <mxCell id="194" value="" style="rounded=0;whiteSpace=wrap;html=1;sketch=1;fillStyle=zigzag;strokeColor=#d79b00;strokeWidth=1;fillColor=#ffcd28;gradientColor=#ffa500;jiggle=0;" vertex="1" parent="1">
                    <mxGeometry x="-320" y="3620" width="120" height="60" as="geometry"/>
                </mxCell>
            </root>
        </mxGraphModel>
    </diagram>
</mxfile>